<svg xmlns="http://www.w3.org/2000/svg" viewBox="0 0 720 720" role="img" aria-label="取締役会議">
  <defs>
    <radialGradient id="bg" cx="50%" cy="32%" r="68%">
      <stop offset="0%" stop-color="#5a1d1d"/>
      <stop offset="55%" stop-color="#16101b"/>
      <stop offset="100%" stop-color="#06070d"/>
    </radialGradient>
    <linearGradient id="table" x1="0" x2="1">
      <stop offset="0%" stop-color="#3d170d"/>
      <stop offset="50%" stop-color="#7a2b12"/>
      <stop offset="100%" stop-color="#3d170d"/>
    </linearGradient>
    <filter id="shadow" x="-20%" y="-20%" width="140%" height="140%">
      <feDropShadow dx="0" dy="25" stdDeviation="18" flood-color="#000" flood-opacity=".72"/>
    </filter>
  </defs>
  <rect width="720" height="720" fill="url(#bg)"/>
  <g opacity=".26" stroke="#e8b840" stroke-width="2" fill="none">
    <path d="M80 120h560M100 190h520M120 260h480"/>
    <path d="M180 90v250M360 70v285M540 90v250"/>
  </g>
  <g filter="url(#shadow)">
    <ellipse cx="360" cy="562" rx="268" ry="83" fill="url(#table)"/>
    <path d="M122 562c55 86 424 86 476 0v88H122z" fill="#2a100a"/>
    <g fill="#11141c">
      <path d="M132 454c12-78 56-126 112-126s101 48 113 126z"/>
      <path d="M264 421c13-93 50-150 96-150s83 57 96 150z"/>
      <path d="M363 454c12-78 56-126 112-126s101 48 113 126z"/>
    </g>
    <g fill="#1b1f2a">
      <path d="M160 374c12-54 43-86 84-86s72 32 84 86c-57 30-112 30-168 0z"/>
      <path d="M293 343c13-67 36-99 67-99s54 32 67 99c-45 31-90 31-134 0z"/>
      <path d="M391 374c12-54 43-86 84-86s72 32 84 86c-57 30-112 30-168 0z"/>
    </g>
    <g fill="#e8dbc0">
      <circle cx="212" cy="379" r="12"/><circle cx="276" cy="379" r="12"/>
      <circle cx="337" cy="351" r="11"/><circle cx="383" cy="351" r="11"/>
      <circle cx="443" cy="379" r="12"/><circle cx="507" cy="379" r="12"/>
    </g>
    <g stroke="#e8b840" stroke-width="9" stroke-linecap="round" fill="none">
      <path d="M188 340c32-13 65-13 99 0"/>
      <path d="M322 314c25-11 51-11 76 0"/>
      <path d="M420 340c32-13 65-13 99 0"/>
    </g>
    <path d="M268 492h184l-26 62H294z" fill="#efe7d3"/>
    <path d="M306 510h108M320 528h80" stroke="#6b1b1b" stroke-width="7" stroke-linecap="round"/>
  </g>
</svg>
