<svg xmlns="http://www.w3.org/2000/svg" viewBox="0 0 720 720" role="img" aria-label="先輩カラス">
  <defs>
    <radialGradient id="bg" cx="50%" cy="34%" r="62%">
      <stop offset="0%" stop-color="#24385f"/>
      <stop offset="62%" stop-color="#0d1322"/>
      <stop offset="100%" stop-color="#05070d"/>
    </radialGradient>
    <linearGradient id="suit" x1="0" x2="1" y1="0" y2="1">
      <stop offset="0%" stop-color="#263143"/>
      <stop offset="100%" stop-color="#0a0f18"/>
    </linearGradient>
    <filter id="shadow" x="-20%" y="-20%" width="140%" height="140%">
      <feDropShadow dx="0" dy="25" stdDeviation="17" flood-color="#000" flood-opacity=".68"/>
    </filter>
  </defs>
  <rect width="720" height="720" fill="url(#bg)"/>
  <g opacity=".24" stroke="#e8b840" stroke-width="2" fill="none">
    <path d="M110 135h500M86 500h548"/>
    <path d="M190 95v520M530 95v520"/>
  </g>
  <g filter="url(#shadow)">
    <path d="M166 690c18-153 90-230 194-230s176 77 194 230z" fill="url(#suit)"/>
    <path d="M258 504l102 126 102-126-45-32H303z" fill="#ece5d2"/>
    <path d="M323 523l37 87 37-87-37-33z" fill="#253a70"/>
    <path d="M198 318c-38-14-55-50-43-84 11-31 43-41 77-31 20-85 78-137 148-137 88 0 148 66 148 157 35 5 59 28 54 61-6 37-41 53-78 46-31 92-86 144-153 144-72 0-126-58-153-156z" fill="#111217"/>
    <path d="M222 300c26 111 73 159 133 159 61 0 106-53 129-151-62 14-125 6-188-25-34-17-59-11-74 17z" fill="#1a1d25"/>
    <path d="M242 207c65-76 159-89 250-29 21 14 35 36 39 64-82-37-173-42-289-35z" fill="#252b36"/>
    <path d="M278 286c34-14 63-12 88 5M394 291c31-19 63-19 95 1" stroke="#e8b840" stroke-width="10" stroke-linecap="round" fill="none"/>
    <circle cx="315" cy="327" r="16" fill="#e8dbc0"/>
    <circle cx="431" cy="327" r="16" fill="#e8dbc0"/>
    <path d="M330 402c29 17 58 17 87 0" stroke="#e8dbc0" stroke-width="9" stroke-linecap="round" fill="none" opacity=".62"/>
    <path d="M222 462c31-29 71-47 117-54" stroke="#e8dbc0" stroke-width="9" stroke-linecap="round" fill="none" opacity=".45"/>
    <path d="M92 610c62-63 130-86 206-70" stroke="#e8b840" stroke-width="12" stroke-linecap="round" fill="none"/>
    <path d="M628 610c-62-63-130-86-206-70" stroke="#e8b840" stroke-width="12" stroke-linecap="round" fill="none"/>
  </g>
</svg>
